<svg viewBox="0 0 65 65" fill="none" xmlns="http://www.w3.org/2000/svg">
<path fill-rule="evenodd" clip-rule="evenodd" d="M57.1903 51.6947L43.3372 29.4467L33.2265 38.3165L55.976 58.2723L61.1162 62.7819C61.4715 63.0935 61.8269 63.4061 62.1833 63.7166C63.1213 64.5394 64.5331 63.4872 63.8362 62.3689L57.1903 51.6947V51.6947ZM2.11941 11.0296C2.80342 11.7168 3.57814 12.3091 4.30697 12.9493L11.2474 19.0361L20.3252 26.9999L31.0698 9.74271L29.0744 6.5382C28.4277 5.50098 28.019 4.41681 27.08 3.56953C25.0215 1.71278 22.1126 0.874035 19.4395 0.422652C15.9047 -0.17504 12.2916 -0.138545 8.76958 0.530429C6.20214 1.02663 3.39246 1.90592 1.48235 3.78615C0.801543 4.45522 0.253054 5.2865 0.0684452 6.23622C-0.0439557 6.81463 -0.0176253 7.41145 0.145276 7.97772C0.333086 8.63186 1.0331 9.93905 2.11941 11.0296V11.0296ZM11.3445 2.30929C12.3604 2.20258 13.3827 2.15242 14.4049 2.15242C17.2189 2.15242 20.1129 2.49816 22.7571 3.5023C24.1337 4.02625 26.1025 4.90021 26.5944 6.44643C27.0362 7.83153 25.5903 8.95092 24.5573 9.5581C22.4338 10.8055 19.8888 11.3434 17.4654 11.5995C12.6613 12.1053 6.34833 11.7937 2.66257 8.25944C-0.410683 4.41574 9.45039 2.5099 11.3445 2.30929V2.30929ZM64.0251 6.95437C64.0251 2.33383 57.1402 0.59979 53.6678 0.274325C48.4358 -0.215474 42.1826 -0.0980934 37.8438 2.86524C36.4203 3.83737 35.8195 5.14244 34.9605 6.5222L32.6502 10.2325L12.7072 42.2615L3.48317 57.0761C2.40669 58.8062 1.32963 60.536 0.251986 62.2654C-0.374401 63.2717 0.722578 64.6952 1.77047 63.7796C3.54933 62.5674 5.13184 60.8312 6.74636 59.4141L19.0319 48.6385L49.6854 21.7487L59.4793 13.1574L61.575 11.3188C62.3359 10.6519 62.942 9.83661 63.4499 8.96052L63.4585 8.94665C63.8211 8.34473 64.0167 7.65703 64.0251 6.95437V6.95437ZM49.6193 2.15242C52.4151 2.15242 55.2877 2.49389 57.917 3.48416C59.3032 4.00597 61.2485 4.86606 61.781 6.39735C62.5376 8.57316 59.0321 10.0298 57.5286 10.5569C55.1372 11.3978 52.5645 11.7136 50.0397 11.7531C47.1777 11.7979 44.2304 11.4746 41.5253 10.5014C40.0858 9.98387 38.0882 9.13766 37.4746 7.59037C36.94 6.23835 38.2546 5.10189 39.2769 4.46483C41.3268 3.18964 43.8302 2.63262 46.1992 2.34983C47.3343 2.21631 48.4763 2.15039 49.6193 2.15242V2.15242Z" fill="url(#paint0_linear)"/>
<defs>
    <linearGradient id="paint0_linear" x1="0.00761515" y1="0.00209299" x2="58.0341" y2="27.0603" gradientUnits="userSpaceOnUse">
        <stop stop-color="#E63500"/>
        <stop offset="1" stop-color="#FFC316"/>
    </linearGradient>
</defs>
</svg>
