<svg width="512" height="512" viewBox="0 0 512 512" fill="none" xmlns="http://www.w3.org/2000/svg">
<g clip-path="url(#clip0)">
<rect width="512" height="512" fill="#2F80ED"/>
<path d="M186.333 119.667L253.667 118.333C298.556 118.333 328.333 133.444 343 163.667C347.889 173.889 350.333 184.556 350.333 195.667C350.333 206.778 348.111 216.333 343.667 224.333C339.667 232.333 334.556 239.667 328.333 246.333C316.333 258.778 303.667 266.556 290.333 269.667L354.333 351.667C367.667 369 383.444 381.222 401.667 388.333C411.444 392.333 419.889 394.333 427 394.333C428.333 396.111 428.778 399.222 428.333 403.667C427.889 407.667 427.444 410.111 427 411C414.556 411.889 397.667 412.333 376.333 412.333C355 412.333 338.778 408.778 327.667 401.667C316.556 394.556 308.111 387.222 302.333 379.667L231 284.333C230.111 283.444 228.778 282.111 227 280.333C225.667 278.556 224.333 277.667 223 277.667H216.333V345C216.333 354.778 216.333 363 216.333 369.667C216.778 376.333 217.667 381.222 219 384.333C220.333 387 222.111 389 224.333 390.333C227 391.222 229.667 392.111 232.333 393C237.222 393.889 242.556 394.333 248.333 394.333C249.222 396.111 249.667 399 249.667 403C249.667 407 249.222 409.667 248.333 411C206.556 407 164.778 407 123 411C122.111 409.667 121.667 407 121.667 403C121.667 399 122.111 396.111 123 394.333C132.333 394.333 139.222 393.444 143.667 391.667C148.111 389.444 150.778 387.667 151.667 386.333C153.889 381 155 367.222 155 345V183C155 161.667 153.889 147.889 151.667 141.667C148.556 137.222 139 135 123 135C122.111 133.222 121.667 130.333 121.667 126.333C121.667 122.333 122.111 119.667 123 118.333C133.222 119.222 143.889 119.667 155 119.667H186.333ZM278.333 159.667C269.889 144.111 257.444 136.333 241 136.333C235.667 136.333 230.778 136.556 226.333 137C222.333 137.444 219.889 139 219 141.667C217.222 145.222 216.333 154.111 216.333 168.333V260.333H237C249.889 260.333 261 255 270.333 244.333C280.111 233.667 285 219 285 200.333C285 181.222 282.778 167.667 278.333 159.667Z" fill="white"/>
</g>
<defs>
<clipPath id="clip0">
<rect width="512" height="512" fill="white"/>
</clipPath>
</defs>
</svg>
